#!OML:ASF X:\für Bonn\!DataBase\2005_08_10_Bjorn_Final\c3d\bjorn.ASF
:FULLY-SPECIFIED
:DEGREES
241
root 16.4712 17.9264 0.705068 1091.43 -69.0109 -332.806
lowerback 58.5461 1.50614 9.06547
upperback 20.897 3.25952 -0.0902333
thorax 2.79333 1.72032 -5.21793
lowerneck 7.24694 -6.96679 13.5346
upperneck -21.2721 -8.21177 -1.452
head -8.49322 -5.04673 -1.85586
rclavicle -2.22639e-014 -9.54166e-015
rhumerus 62.5449 10.9297 -14.3224
rradius 23.1643
rwrist -8.34329
rhand -26.5409 14.8579
rfingers 7.12502
rthumb 0.0233038 -15.1219
lclavicle -2.22639e-014 -9.54166e-015
lhumerus -7.7734 -24.4498 89.56
lradius 49.5345
lwrist 0.87771
lhand -28.7908 -14.7734
lfingers 7.12502
lthumb -2.14969 15.1955
rfemur -73.2987 -14.7479 11.7194
rtibia 59.1791
rfoot -17.023 8.17012
rtoes -9.00947
lfemur -70.6795 -6.32417 -22.7744
ltibia 54.8734
lfoot -14.1054 -2.17085
ltoes -8.4162
242
root 16.4871 17.9557 0.728689 1091.68 -69.1713 -333.151
lowerback 57.4666 1.69518 8.89855
upperback 21.1746 3.27594 -0.0575361
thorax 3.13264 1.72571 -5.13339
lowerneck 6.73181 -6.91267 13.5776
upperneck -21.0771 -8.23028 -1.49807
head -8.33864 -5.05682 -1.89711
rclavicle 2.54444e-014 -1.43125e-014
rhumerus 61.5722 11.1624 -16.1947
rradius 23.2589
rwrist -8.51976
rhand -25.5475 14.2472
rfingers 7.12502
rthumb 0.982758 -15.7303
lclavicle 2.54444e-014 -1.43125e-014
lhumerus -7.50314 -24.4469 89.4343
lradius 49.3298
lwrist 0.74523
lhand -28.6708 -14.703
lfingers 7.12502
lthumb -2.03381 15.267
rfemur -72.977 -14.5757 11.7257
rtibia 58.6941
rfoot -16.8209 8.1137
rtoes -9.0035
lfemur -70.438 -6.343 -22.6209
ltibia 54.5438
lfoot -13.9694 -1.98062
ltoes -8.49301
243
root 16.5028 17.9855 0.753297 1091.87 -69.3484 -333.466
lowerback 56.3838 1.90099 8.68536
upperback 21.4536 3.29415 -0.0113178
thorax 3.48077 1.72542 -5.01288
lowerneck 6.17621 -6.83437 13.5598
upperneck -20.8282 -8.22399 -1.51935
head -8.15288 -5.05071 -1.92585
rclavicle -2.8625e-014 2.54444e-014
rhumerus 60.5899 11.3951 -17.8692
rradius 23.375
rwrist -8.7955
rhand -24.5111 13.6262
rfingers 7.12502
rthumb 1.98373 -16.3443
lclavicle -2.8625e-014 2.54444e-014
lhumerus -7.23755 -24.4377 89.3166
lradius 49.1441
lwrist 0.67471
lhand -28.5119 -14.5735
lfingers 7.12502
lthumb -1.88028 15.398
rfemur -72.6083 -14.3881 11.7051
rtibia 58.1871
rfoot -16.6114 8.05172
rtoes -9.03283
lfemur -70.1581 -6.36009 -22.479
ltibia 54.1905
lfoot -13.8393 -1.77672
ltoes -8.31142
244
root 16.5176 18.0171 0.779194 1092.08 -69.5259 -333.835
lowerback 55.302 2.08273 8.50898
upperback 21.7378 3.30617 0.00966851
thorax 3.85137 1.72876 -4.93176
lowerneck 5.55221 -6.74702 13.4988
upperneck -20.5181 -8.20156 -1.45487
head -7.92876 -5.03907 -1.92446
rclavicle 3.49861e-014 6.36111e-014
rhumerus 59.5309 11.4824 -19.7938
rradius 23.4318
rwrist -8.83069
rhand -23.3518 12.8579
rfingers 7.12502
rthumb 3.10335 -17.0992
lclavicle 3.49861e-014 6.36111e-014
lhumerus -6.93013 -24.4139 89.1594
lradius 48.9101
lwrist 0.556084
lhand -28.3822 -14.5189
lfingers 7.12502
lthumb -1.75509 15.4536
rfemur -72.1986 -14.2122 11.7086
rtibia 57.6632
rfoot -16.3999 8.01401
rtoes -8.92045
lfemur -69.83 -6.40214 -22.3063
ltibia 53.8252
lfoot -13.7217 -1.51021
ltoes -8.43309
245
root 16.5313 18.0492 0.804941 1092.19 -69.7237 -334.124
lowerback 54.2706 2.28283 8.27536
upperback 21.9546 3.3343 0.0207315
thorax 4.14954 1.73104 -4.8398
lowerneck 5.09233 -6.69483 13.4588
upperneck -20.2633 -8.19926 -1.39615
head -7.75677 -5.03708 -1.9194
rclavicle -5.08889e-014 5.24792e-014
rhumerus 58.4178 11.5885 -21.7687
rradius 23.4518
rwrist -8.78062
rhand -22.1441 12.0394
rfingers 7.12502
rthumb 4.26962 -17.8975
lclavicle -5.08889e-014 5.24792e-014
lhumerus -6.74488 -24.4136 89.0141
lradius 48.7116
lwrist 0.487696
lhand -28.219 -14.3824
lfingers 7.12502
lthumb -1.59741 15.5913
rfemur -71.7496 -14.0071 11.6651
rtibia 57.1183
rfoot -16.195 7.93891
rtoes -9.07814
lfemur -69.4484 -6.42007 -22.1828
ltibia 53.4395
lfoot -13.6086 -1.26563
ltoes -8.53371
246
root 16.5438 18.0824 0.83155 1092.25 -69.9463 -334.4
lowerback 53.2867 2.47991 7.99601
upperback 22.1008 3.36032 0.00288363
thorax 4.37083 1.72629 -4.75631
lowerneck 4.85398 -6.65812 13.4568
upperneck -20.0535 -8.17981 -1.35892
head -7.64141 -5.02478 -1.92054
rclavicle 8.5875e-014 -6.83819e-014
rhumerus 57.2395 11.8344 -23.6068
rradius 23.5436
rwrist -8.98326
rhand -20.9937 11.2461
rfingers 7.12502
rthumb 5.38043 -18.6656
lclavicle 8.5875e-014 -6.83819e-014
lhumerus -6.70232 -24.3578 88.8739
lradius 48.5301
lwrist 0.382998
lhand -28.055 -14.343
lfingers 7.12502
lthumb -1.43901 15.6318
rfemur -71.2499 -13.7906 11.6112
rtibia 56.5542
rfoot -15.9721 7.89626
rtoes -9.06229
lfemur -69.0228 -6.41083 -22.0758
ltibia 53.039
lfoot -13.4871 -1.05853
ltoes -8.44832
247
root 16.5554 18.1199 0.858823 1092.42 -70.1726 -334.864
lowerback 52.4025 2.64978 7.78624
upperback 22.2294 3.39634 -0.0248247
thorax 4.58129 1.73123 -4.71429
lowerneck 4.6509 -6.63883 13.4748
upperneck -19.9074 -8.17803 -1.32086
head -7.55635 -5.02513 -1.92037
rclavicle 4.45278e-014 4.45278e-014
rhumerus 55.9936 11.9802 -25.5238
rradius 23.5926
rwrist -9.11881
rhand -19.8026 10.5396
rfingers 7.12502
rthumb 6.53037 -19.3397
lclavicle 4.45278e-014 4.45278e-014
lhumerus -6.67426 -24.3652 88.6914
lradius 48.3948
lwrist 0.358903
lhand -27.8825 -14.2574
lfingers 7.12502
lthumb -1.2724 15.7186
rfemur -70.6489 -13.5586 11.6227
rtibia 55.9588
rfoot -15.7734 7.86251
rtoes -9.07145
lfemur -68.4948 -6.37369 -21.9222
ltibia 52.6242
lfoot -13.3996 -0.824047
ltoes -8.58818
